<svg width="164" height="16" viewBox="0 0 164 16" fill="none" xmlns="http://www.w3.org/2000/svg">
<path d="M0 16C0.0295735 15.5581 0.059147 15.1543 0.0887206 14.7886C0.118294 14.4229 0.140474 14.0648 0.155261 13.7143C0.184835 13.3638 0.207015 13.0057 0.221801 12.64C0.251375 12.2743 0.273555 11.8705 0.288342 11.4286C0.303129 10.7581 0.310522 10.1486 0.310522 9.6C0.325309 9.05143 0.332702 8.5181 0.332702 8C0.332702 7.4819 0.325309 6.94857 0.310522 6.4C0.310522 5.85143 0.303129 5.2419 0.288342 4.57143C0.273555 4.12952 0.251375 3.72571 0.221801 3.36C0.207015 2.99429 0.184835 2.63619 0.155261 2.28571C0.140474 1.93524 0.118294 1.57714 0.0887206 1.21143C0.059147 0.845715 0.0295735 0.441905 0 0H6.72058C7.85917 0 8.88685 0.0838098 9.80363 0.251429C10.7352 0.40381 11.5337 0.700953 12.1991 1.14286C12.8645 1.58476 13.3746 2.2019 13.7295 2.99429C14.0992 3.77143 14.284 4.78476 14.284 6.03429C14.284 6.90286 14.1879 7.74857 13.9957 8.57143C13.8034 9.39429 13.5151 10.1257 13.1306 10.7657C12.7462 11.3905 12.2582 11.8933 11.6668 12.2743C11.0901 12.6552 10.4099 12.8457 9.62618 12.8457C8.85727 12.8457 8.22883 12.6781 7.74087 12.3429C7.25291 12.0076 6.86845 11.6038 6.5875 11.1314C6.30655 10.659 6.11433 10.1714 6.01082 9.66857C5.90731 9.15048 5.85556 8.72381 5.85556 8.38857H5.56722C5.56722 8.84571 5.56722 9.32571 5.56722 9.82857C5.582 10.3162 5.59679 10.8495 5.61158 11.4286C5.62636 11.8705 5.64115 12.2743 5.65594 12.64C5.68551 13.0057 5.70769 13.3638 5.72248 13.7143C5.75205 14.0648 5.78162 14.4229 5.8112 14.7886C5.84077 15.1543 5.87035 15.5581 5.89992 16H0ZM5.56722 6.58286C5.90731 6.62857 6.18087 6.72762 6.38788 6.88C6.5949 7.01714 6.77234 7.1619 6.92021 7.31429C7.06807 7.45143 7.20855 7.58095 7.34163 7.70286C7.47471 7.82476 7.63736 7.88571 7.82959 7.88571C7.9331 7.88571 8.044 7.86286 8.16229 7.81714C8.29537 7.77143 8.41367 7.68762 8.51718 7.56571C8.63547 7.42857 8.73158 7.25333 8.80552 7.04C8.87945 6.81143 8.91642 6.52952 8.91642 6.19429C8.91642 5.7981 8.86467 5.48571 8.76116 5.25714C8.65765 5.01333 8.50978 4.83048 8.31755 4.70857C8.12533 4.58667 7.88874 4.51048 7.60779 4.48C7.34163 4.43429 7.04589 4.41905 6.72058 4.43429L5.61158 4.45714C5.59679 4.80762 5.5894 5.16571 5.5894 5.53143C5.5894 5.8819 5.582 6.23238 5.56722 6.58286Z" fill="white"/>
<path d="M14.9456 16C14.9752 15.5581 15.0048 15.1543 15.0343 14.7886C15.0787 14.4229 15.1157 14.0648 15.1452 13.7143C15.1748 13.3638 15.197 13.0057 15.2118 12.64C15.2413 12.2743 15.2635 11.8705 15.2783 11.4286C15.3079 10.7581 15.3227 10.1486 15.3227 9.6C15.3375 9.05143 15.3448 8.5181 15.3448 8C15.3448 7.4819 15.3375 6.94857 15.3227 6.4C15.3227 5.85143 15.3079 5.2419 15.2783 4.57143C15.2635 4.12952 15.2413 3.72571 15.2118 3.36C15.197 2.99429 15.1748 2.63619 15.1452 2.28571C15.1157 1.93524 15.0787 1.57714 15.0343 1.21143C15.0048 0.845715 14.9752 0.441905 14.9456 0H20.8233C20.7938 0.441905 20.7568 0.845715 20.7124 1.21143C20.6829 1.57714 20.6533 1.93524 20.6237 2.28571C20.5942 2.63619 20.5646 2.99429 20.535 3.36C20.5202 3.72571 20.5054 4.12952 20.4906 4.57143C20.4759 5.2419 20.4611 5.85143 20.4463 6.4C20.4315 6.94857 20.4241 7.4819 20.4241 8C20.4241 8.5181 20.4315 9.05143 20.4463 9.6C20.4611 10.1486 20.4759 10.7581 20.4906 11.4286V11.4971C21.023 11.5124 21.5479 11.5048 22.0654 11.4743C22.5978 11.4438 23.1449 11.4133 23.7068 11.3829C24.0912 11.3524 24.4091 11.3143 24.6605 11.2686C24.9119 11.2076 25.2298 11.1467 25.6143 11.0857V16H14.9456Z" fill="white"/>
<path d="M26.2904 16C26.4678 15.1162 26.6305 14.2933 26.7784 13.5314C26.941 12.7543 27.0889 11.9238 27.222 11.04C27.3255 10.3695 27.4216 9.78286 27.5103 9.28C27.599 8.7619 27.6878 8.25905 27.7765 7.77143C27.8652 7.28381 27.9539 6.77333 28.0426 6.24C28.1314 5.69143 28.2275 5.05905 28.331 4.34286C28.3901 3.90095 28.4419 3.51238 28.4862 3.17714C28.5454 2.84191 28.5971 2.51429 28.6415 2.19429C28.6859 1.87429 28.7228 1.53905 28.7524 1.18857C28.7968 0.838096 28.8337 0.441905 28.8633 0H38.179C38.2085 0.441905 38.2381 0.838096 38.2677 1.18857C38.312 1.53905 38.3564 1.87429 38.4008 2.19429C38.4451 2.51429 38.4895 2.84191 38.5338 3.17714C38.593 3.51238 38.6521 3.90095 38.7113 4.34286C38.8148 5.05905 38.9109 5.69143 38.9996 6.24C39.0883 6.77333 39.1771 7.28381 39.2658 7.77143C39.3545 8.25905 39.4432 8.7619 39.532 9.28C39.6207 9.78286 39.7168 10.3695 39.8203 11.04C39.9534 11.9238 40.0938 12.7543 40.2417 13.5314C40.4044 14.2933 40.5744 15.1162 40.7519 16H34.8298C34.8002 15.3752 34.7706 14.8495 34.741 14.4229C34.7263 13.981 34.7041 13.5238 34.6745 13.0514H32.3678C32.3382 13.5238 32.3086 13.981 32.279 14.4229C32.2643 14.8495 32.2421 15.3752 32.2125 16H26.2904ZM34.3862 10.3086C34.1496 8.25143 33.8612 6.18667 33.5211 4.11428C33.181 6.18667 32.8927 8.25143 32.6561 10.3086H34.3862Z" fill="white"/>
<path d="M41.4145 16C41.4441 15.5581 41.4736 15.1543 41.5032 14.7886C41.5476 14.4229 41.5845 14.0648 41.6141 13.7143C41.6437 13.3638 41.6659 13.0057 41.6807 12.64C41.7102 12.2743 41.7324 11.8705 41.7472 11.4286C41.7768 10.7581 41.7916 10.1486 41.7916 9.6C41.8063 9.05143 41.8137 8.5181 41.8137 8C41.8137 7.4819 41.8063 6.94857 41.7916 6.4C41.7916 5.85143 41.7768 5.2419 41.7472 4.57143C41.7324 4.12952 41.7102 3.72571 41.6807 3.36C41.6659 2.99429 41.6437 2.63619 41.6141 2.28571C41.5845 1.93524 41.5476 1.57714 41.5032 1.21143C41.4736 0.845715 41.4441 0.441905 41.4145 0H49.6211C49.6803 0.441905 49.732 0.830477 49.7764 1.16571C49.8208 1.48571 49.8651 1.80571 49.9095 2.12571C49.9538 2.43048 49.9982 2.75048 50.0426 3.08572C50.1017 3.40571 50.1609 3.78667 50.22 4.22857C50.4714 5.85905 50.7302 7.48952 50.9963 9.12C51.2773 10.7352 51.5878 12.3505 51.9279 13.9657C51.9575 13.5695 51.987 13.1733 52.0166 12.7771C52.0462 12.381 52.0684 11.9314 52.0831 11.4286C52.1127 10.7581 52.1275 10.1486 52.1275 9.6C52.1423 9.05143 52.1497 8.5181 52.1497 8C52.1497 7.4819 52.1423 6.94857 52.1275 6.4C52.1275 5.85143 52.1127 5.2419 52.0831 4.57143C52.0684 4.12952 52.0462 3.72571 52.0166 3.36C52.0018 2.99429 51.9796 2.63619 51.9501 2.28571C51.9205 1.93524 51.8835 1.57714 51.8392 1.21143C51.8096 0.845715 51.78 0.441905 51.7504 0H57.6282C57.5986 0.441905 57.5616 0.845715 57.5173 1.21143C57.4877 1.57714 57.4581 1.93524 57.4286 2.28571C57.399 2.63619 57.3694 2.99429 57.3398 3.36C57.3251 3.72571 57.3103 4.12952 57.2955 4.57143C57.2807 5.2419 57.2659 5.85143 57.2511 6.4C57.2363 6.94857 57.2289 7.4819 57.2289 8C57.2289 8.5181 57.2363 9.05143 57.2511 9.6C57.2659 10.1486 57.2807 10.7581 57.2955 11.4286C57.3103 11.8705 57.3251 12.2743 57.3398 12.64C57.3694 13.0057 57.399 13.3638 57.4286 13.7143C57.4581 14.0648 57.4877 14.4229 57.5173 14.7886C57.5616 15.1543 57.5986 15.5581 57.6282 16H49.7542C49.6951 15.5581 49.6359 15.1619 49.5768 14.8114C49.5324 14.461 49.4807 14.1257 49.4215 13.8057C49.3772 13.4857 49.3254 13.1581 49.2663 12.8229C49.2219 12.4724 49.1628 12.0838 49.0888 11.6571C48.9705 10.941 48.8596 10.3162 48.7561 9.78286C48.6526 9.23429 48.5491 8.71619 48.4456 8.22857C48.3569 7.74095 48.2608 7.23809 48.1573 6.72C48.0685 6.2019 47.9576 5.60762 47.8246 4.93714C47.7063 4.3581 47.5954 3.79429 47.4919 3.24571C47.3883 2.69714 47.2774 2.14857 47.1591 1.6C47.1148 2.07238 47.0704 2.53714 47.0261 2.99429C46.9965 3.45143 46.9743 3.97714 46.9595 4.57143C46.9447 5.2419 46.93 5.85143 46.9152 6.4C46.9004 6.94857 46.893 7.4819 46.893 8C46.893 8.5181 46.9004 9.05143 46.9152 9.6C46.93 10.1486 46.9447 10.7581 46.9595 11.4286C46.9743 11.8705 46.9891 12.2743 47.0039 12.64C47.0335 13.0057 47.063 13.3638 47.0926 13.7143C47.1222 14.0648 47.1518 14.4229 47.1813 14.7886C47.2257 15.1543 47.2627 15.5581 47.2922 16H41.4145Z" fill="white"/>
<path d="M58.5261 16C58.5557 15.5581 58.5853 15.1543 58.6148 14.7886C58.6592 14.4229 58.6962 14.0648 58.7257 13.7143C58.7553 13.3638 58.7775 13.0057 58.7923 12.64C58.8219 12.2743 58.844 11.8705 58.8588 11.4286C58.8884 10.7581 58.9032 10.1486 58.9032 9.6C58.918 9.05143 58.9254 8.5181 58.9254 8C58.9254 7.4819 58.918 6.94857 58.9032 6.4C58.9032 5.85143 58.8884 5.2419 58.8588 4.57143C58.844 4.12952 58.8219 3.72571 58.7923 3.36C58.7775 2.99429 58.7553 2.63619 58.7257 2.28571C58.6962 1.93524 58.6592 1.57714 58.6148 1.21143C58.5853 0.845715 58.5557 0.441905 58.5261 0H69.0395V4.91429C68.6551 4.85333 68.3371 4.8 68.0858 4.75429C67.8344 4.69333 67.5165 4.64762 67.132 4.61714C66.5849 4.58667 66.0674 4.55619 65.5794 4.52571C65.0914 4.49524 64.5887 4.48762 64.0712 4.50286V4.57143C64.0564 4.87619 64.0416 5.17333 64.0268 5.46286C64.0268 5.73714 64.0268 6.00381 64.0268 6.26286C64.2486 6.2781 64.4704 6.28571 64.6922 6.28571C64.914 6.27048 65.1654 6.25524 65.4463 6.24C65.8012 6.20952 66.097 6.17905 66.3335 6.14857C66.5701 6.11809 66.8659 6.08762 67.2207 6.05714V9.94286C66.6884 9.86667 66.1561 9.81333 65.6238 9.78286C65.0914 9.75238 64.5591 9.72952 64.0268 9.71429C64.0268 9.97333 64.0268 10.2476 64.0268 10.5371C64.0416 10.8267 64.0564 11.1238 64.0712 11.4286V11.4971C64.6774 11.5124 65.2615 11.5124 65.8234 11.4971C66.3853 11.4667 66.9768 11.4286 67.5978 11.3829C67.9823 11.3524 68.3002 11.3143 68.5516 11.2686C68.8029 11.2076 69.1208 11.1467 69.5053 11.0857V16H58.5261Z" fill="white"/>
<path d="M73.4125 16C73.442 15.5581 73.4716 15.1543 73.5012 14.7886C73.5455 14.4229 73.5825 14.0648 73.6121 13.7143C73.6417 13.3638 73.6638 13.0057 73.6786 12.64C73.7082 12.2743 73.7304 11.8705 73.7452 11.4286C73.7747 10.7581 73.7895 10.1486 73.7895 9.6C73.8043 9.05143 73.8117 8.5181 73.8117 8C73.8117 7.4819 73.8043 6.94857 73.7895 6.4C73.7895 5.85143 73.7747 5.2419 73.7452 4.57143V4.52571C73.479 4.54095 73.2055 4.55619 72.9245 4.57143C72.6583 4.57143 72.3774 4.58667 72.0817 4.61714C71.6972 4.64762 71.3793 4.69333 71.1279 4.75429C70.8765 4.8 70.5586 4.85333 70.1742 4.91429V0H82.7059V4.91429C82.3215 4.85333 82.0036 4.8 81.7522 4.75429C81.5008 4.69333 81.1829 4.64762 80.7985 4.61714C80.4732 4.58667 80.1552 4.56381 79.8447 4.54857C79.549 4.53333 79.2532 4.5181 78.9575 4.50286V4.57143C78.9427 5.2419 78.9279 5.85143 78.9131 6.4C78.8984 6.94857 78.891 7.4819 78.891 8C78.891 8.5181 78.8984 9.05143 78.9131 9.6C78.9279 10.1486 78.9427 10.7581 78.9575 11.4286C78.9723 11.8705 78.9871 12.2743 79.0019 12.64C79.0314 13.0057 79.061 13.3638 79.0906 13.7143C79.1202 14.0648 79.1497 14.4229 79.1793 14.7886C79.2237 15.1543 79.2606 15.5581 79.2902 16H73.4125Z" fill="white"/>
<path d="M87.8109 16C87.8404 15.5581 87.87 15.1543 87.8996 14.7886C87.9439 14.4229 87.9809 14.0648 88.0105 13.7143C88.04 13.3638 88.0622 13.0057 88.077 12.64C88.1066 12.2743 88.1288 11.8705 88.1435 11.4286C88.1731 10.7581 88.1879 10.1486 88.1879 9.6C88.2027 9.05143 88.2101 8.5181 88.2101 8C88.2101 7.4819 88.2027 6.94857 88.1879 6.4C88.1879 5.85143 88.1731 5.2419 88.1435 4.57143C88.1288 4.12952 88.1066 3.72571 88.077 3.36C88.0622 2.99429 88.04 2.63619 88.0105 2.28571C87.9809 1.93524 87.9439 1.57714 87.8996 1.21143C87.87 0.845715 87.8404 0.441905 87.8109 0H93.6886C93.659 0.441905 93.622 0.845715 93.5777 1.21143C93.5481 1.57714 93.5185 1.93524 93.489 2.28571C93.4594 2.63619 93.4298 2.99429 93.4002 3.36C93.3855 3.72571 93.3707 4.12952 93.3559 4.57143C93.3411 5.2419 93.3263 5.85143 93.3115 6.4C93.2967 6.94857 93.2893 7.4819 93.2893 8C93.2893 8.5181 93.2967 9.05143 93.3115 9.6C93.3263 10.1486 93.3411 10.7581 93.3559 11.4286V11.4971C93.8882 11.5124 94.4131 11.5048 94.9307 11.4743C95.463 11.4438 96.0101 11.4133 96.572 11.3829C96.9565 11.3524 97.2744 11.3143 97.5258 11.2686C97.7771 11.2076 98.095 11.1467 98.4795 11.0857V16H87.8109Z" fill="white"/>
<path d="M99.3774 16C99.407 15.5581 99.4366 15.1543 99.4662 14.7886C99.5105 14.4229 99.5475 14.0648 99.5771 13.7143C99.6066 13.3638 99.6288 13.0057 99.6436 12.64C99.6732 12.2743 99.6954 11.8705 99.7102 11.4286C99.7397 10.7581 99.7545 10.1486 99.7545 9.6C99.7693 9.05143 99.7767 8.5181 99.7767 8C99.7767 7.4819 99.7693 6.94857 99.7545 6.4C99.7545 5.85143 99.7397 5.2419 99.7102 4.57143C99.6954 4.12952 99.6732 3.72571 99.6436 3.36C99.6288 2.99429 99.6066 2.63619 99.5771 2.28571C99.5475 1.93524 99.5105 1.57714 99.4662 1.21143C99.4366 0.845715 99.407 0.441905 99.3774 0H105.255C105.226 0.441905 105.189 0.845715 105.144 1.21143C105.115 1.57714 105.085 1.93524 105.056 2.28571C105.026 2.63619 104.996 2.99429 104.967 3.36C104.952 3.72571 104.937 4.12952 104.922 4.57143C104.908 5.2419 104.893 5.85143 104.878 6.4C104.863 6.94857 104.856 7.4819 104.856 8C104.856 8.5181 104.863 9.05143 104.878 9.6C104.893 10.1486 104.908 10.7581 104.922 11.4286C104.937 11.8705 104.952 12.2743 104.967 12.64C104.996 13.0057 105.026 13.3638 105.056 13.7143C105.085 14.0648 105.115 14.4229 105.144 14.7886C105.189 15.1543 105.226 15.5581 105.255 16H99.3774Z" fill="white"/>
<path d="M105.958 16C106.875 14.0343 107.814 12.1219 108.775 10.2629C109.736 8.38857 110.638 6.46857 111.481 4.50286C110.83 4.50286 110.187 4.5181 109.551 4.54857C108.915 4.56381 108.339 4.58667 107.821 4.61714C107.437 4.64762 107.119 4.69333 106.867 4.75429C106.616 4.8 106.298 4.85333 105.914 4.91429V0H118.645C117.802 1.76762 116.93 3.6419 116.028 5.62286C115.126 7.58857 114.283 9.54667 113.499 11.4971C114.165 11.5124 114.83 11.5048 115.495 11.4743C116.161 11.4438 116.76 11.4133 117.292 11.3829C117.677 11.3524 117.994 11.3143 118.246 11.2686C118.497 11.2076 118.815 11.1467 119.2 11.0857V16H105.958Z" fill="white"/>
<path d="M119.646 16C119.824 15.1162 119.986 14.2933 120.134 13.5314C120.297 12.7543 120.445 11.9238 120.578 11.04C120.681 10.3695 120.777 9.78286 120.866 9.28C120.955 8.7619 121.044 8.25905 121.132 7.77143C121.221 7.28381 121.31 6.77333 121.399 6.24C121.487 5.69143 121.583 5.05905 121.687 4.34286C121.746 3.90095 121.798 3.51238 121.842 3.17714C121.901 2.84191 121.953 2.51429 121.997 2.19429C122.042 1.87429 122.079 1.53905 122.108 1.18857C122.153 0.838096 122.19 0.441905 122.219 0H131.535C131.564 0.441905 131.594 0.838096 131.624 1.18857C131.668 1.53905 131.712 1.87429 131.757 2.19429C131.801 2.51429 131.845 2.84191 131.89 3.17714C131.949 3.51238 132.008 3.90095 132.067 4.34286C132.171 5.05905 132.267 5.69143 132.356 6.24C132.444 6.77333 132.533 7.28381 132.622 7.77143C132.71 8.25905 132.799 8.7619 132.888 9.28C132.977 9.78286 133.073 10.3695 133.176 11.04C133.309 11.9238 133.45 12.7543 133.598 13.5314C133.76 14.2933 133.93 15.1162 134.108 16H128.186C128.156 15.3752 128.126 14.8495 128.097 14.4229C128.082 13.981 128.06 13.5238 128.03 13.0514H125.724C125.694 13.5238 125.665 13.981 125.635 14.4229C125.62 14.8495 125.598 15.3752 125.568 16H119.646ZM127.742 10.3086C127.505 8.25143 127.217 6.18667 126.877 4.11428C126.537 6.18667 126.249 8.25143 126.012 10.3086H127.742Z" fill="white"/>
<path d="M134.77 16C134.8 15.5581 134.83 15.1543 134.859 14.7886C134.889 14.4229 134.911 14.0648 134.926 13.7143C134.955 13.3638 134.977 13.0057 134.992 12.64C135.022 12.2743 135.044 11.8705 135.059 11.4286C135.074 10.7581 135.081 10.1486 135.081 9.6C135.096 9.05143 135.103 8.5181 135.103 8C135.103 7.4819 135.096 6.94857 135.081 6.4C135.081 5.85143 135.074 5.2419 135.059 4.57143C135.044 4.12952 135.022 3.72571 134.992 3.36C134.977 2.99429 134.955 2.63619 134.926 2.28571C134.911 1.93524 134.889 1.57714 134.859 1.21143C134.83 0.845715 134.8 0.441905 134.77 0H141.491C142.63 0 143.657 0.0838098 144.574 0.251429C145.506 0.40381 146.304 0.700953 146.969 1.14286C147.635 1.58476 148.145 2.2019 148.5 2.99429C148.87 3.77143 149.054 4.78476 149.054 6.03429C149.054 7.43619 148.796 8.50286 148.278 9.23429C147.775 9.96571 147.073 10.4457 146.171 10.6743C146.393 11.1467 146.622 11.6343 146.859 12.1371C147.095 12.64 147.324 13.1276 147.546 13.6C147.768 14.0724 147.975 14.5143 148.167 14.9257C148.374 15.3371 148.544 15.6952 148.677 16H142.777C142.674 15.5581 142.533 15.0171 142.356 14.3771C142.193 13.7219 142.016 13.0438 141.824 12.3429C141.646 11.6419 141.469 10.9562 141.291 10.2857C141.129 9.61524 140.981 9.04381 140.848 8.57143C140.759 8.31238 140.7 8.06095 140.67 7.81714C140.641 7.55809 140.626 7.3219 140.626 7.10857H140.338C140.323 7.79429 140.323 8.47238 140.338 9.14286C140.352 9.81333 140.367 10.5752 140.382 11.4286C140.397 11.8705 140.412 12.2743 140.426 12.64C140.456 13.0057 140.478 13.3638 140.493 13.7143C140.522 14.0648 140.552 14.4229 140.582 14.7886C140.611 15.1543 140.641 15.5581 140.67 16H134.77ZM140.36 5.32571C140.685 5.37143 140.936 5.46286 141.114 5.6C141.291 5.73714 141.454 5.8819 141.602 6.03429C141.75 6.18667 141.905 6.32381 142.068 6.44571C142.245 6.55238 142.482 6.60571 142.777 6.60571C143.384 6.60571 143.687 6.18667 143.687 5.34857C143.687 4.86095 143.48 4.57905 143.066 4.50286C142.667 4.42667 142.142 4.40381 141.491 4.43429L140.382 4.45714C140.382 4.60952 140.375 4.75429 140.36 4.89143C140.36 5.02857 140.36 5.17333 140.36 5.32571Z" fill="white"/>
<path d="M149.716 16C149.746 15.5581 149.775 15.1543 149.805 14.7886C149.849 14.4229 149.886 14.0648 149.916 13.7143C149.945 13.3638 149.967 13.0057 149.982 12.64C150.012 12.2743 150.034 11.8705 150.049 11.4286C150.078 10.7581 150.093 10.1486 150.093 9.6C150.108 9.05143 150.115 8.5181 150.115 8C150.115 7.4819 150.108 6.94857 150.093 6.4C150.093 5.85143 150.078 5.2419 150.049 4.57143C150.034 4.12952 150.012 3.72571 149.982 3.36C149.967 2.99429 149.945 2.63619 149.916 2.28571C149.886 1.93524 149.849 1.57714 149.805 1.21143C149.775 0.845715 149.746 0.441905 149.716 0H156.437C157.575 0 158.603 0.175238 159.52 0.525714C160.451 0.860953 161.25 1.36381 161.915 2.03429C162.58 2.70476 163.091 3.54286 163.445 4.54857C163.815 5.53905 164 6.68952 164 8C164 9.31048 163.815 10.4686 163.445 11.4743C163.091 12.4648 162.58 13.2952 161.915 13.9657C161.25 14.6362 160.451 15.1467 159.52 15.4971C158.603 15.8324 157.575 16 156.437 16H149.716ZM156.193 11.5657C156.518 11.5657 156.828 11.4895 157.124 11.3371C157.42 11.1848 157.679 10.9638 157.9 10.6743C158.122 10.3695 158.3 9.99619 158.433 9.55429C158.566 9.09714 158.632 8.57905 158.632 8C158.632 6.82667 158.433 5.94286 158.034 5.34857C157.634 4.73905 157.102 4.43429 156.437 4.43429L155.261 4.48V4.57143C155.246 5.2419 155.231 5.85143 155.217 6.4C155.202 6.94857 155.194 7.4819 155.194 8C155.194 8.5181 155.202 9.05143 155.217 9.6C155.231 10.1486 155.246 10.7581 155.261 11.4286V11.52L156.193 11.5657Z" fill="white"/>
</svg>
